# xmcd CD database file
#
# Track frame offsets:
#	150
#	19755
#	38386
#	52297
#	69423
#	87723
#	105687
#	122900
#	144871
#	161407
#
# Disc length: 2284 seconds
#
# Revision: 1
# Processed by: cddbd v1.5.2PL0 Copyright (c) Steve Scherf et al.
# Submitted via: CDex 1.51
#
DISCID=8308ea0a
DTITLE=נועם כהן - הים התיכון
DYEAR=1998
DGENRE=מזרחי
TTITLE0=אשה מטומטמת
TTITLE1=נחל השלום
TTITLE2=הויוה הספניה (בעברית)
TTITLE3=אבי-רן
TTITLE4=בלדה לעודד
TTITLE5=יפו
TTITLE6=הפועל ת"א
TTITLE7=ליאורה
TTITLE8=זהו כדורגל
TTITLE9=אין כמו אמא
EXTD=YEAR: 1998
EXTT0=
EXTT1=
EXTT2=
EXTT3=
EXTT4=
EXTT5=
EXTT6=
EXTT7=
EXTT8=
EXTT9=
PLAYORDER=
